# xmcd
#
# Track frame offsets: 
#        182
#        8832
#        28930
#        45527
#        66937
#        74327
#        89500
#        110360
#        120235
#        138400
#        154065
#        171122
#        189472
#        207420
#        221825
#        238112
#
# Disc length: 3393 seconds
#
# Revision: 5
# Processed by: cddbd v1.5.1PL0 Copyright (c) Steve Scherf et al.
# Submitted via: ExactAudioCopy v0.95a5
#
DISCID=e60d3f10
DTITLE=Harry Belafonte - My Lord What A Mornin'
DYEAR=1995
DGENRE=Gospel
TTITLE0=Wake Up Jacob
TTITLE1=My Lord What A Mornin'
TTITLE2=Ezekiel
TTITLE3=Buked And Scorned
TTITLE4=Stars Shinin' (By 'N By)
TTITLE5=Oh Freedom
TTITLE6=Were You There When They Crucified My Lord
TTITLE7=Oh Let Me Fly
TTITLE8=Swing Low
TTITLE9=March Down To Jordan
TTITLE10=Steal Away
TTITLE11=All My Trials
TTITLE12=Michael Row The Boat Ashore
TTITLE13=Go Down Emanuel Road
TTITLE14=In My Fathers House
TTITLE15=Goin' Down Jordan
EXTD=
EXTT0=
EXTT1=
EXTT2=
EXTT3=
EXTT4=
EXTT5=
EXTT6=
EXTT7=
EXTT8=
EXTT9=
EXTT10=
EXTT11=
EXTT12=
EXTT13=
EXTT14=
EXTT15=
PLAYORDER=
